<svg xmlns="http://www.w3.org/2000/svg" xmlns:xlink="http://www.w3.org/1999/xlink" width="22" height="19" viewBox="0 0 22 19"><defs><path id="gczxa" d="M1646 11523.333v2.461c-.002.663-.884 1.182-2.2 1.57v2.3c0 .11-.025.216-.072.317.757.302 1.14.66 1.166 1.093h.006v2.461c-.003 1.17-2.749 1.897-5.8 2.237-.022.004-.043.013-.067.013-.007 0-.013-.003-.02-.003-.588.063-1.185.113-1.777.148-.012 0-.023.007-.036.007-.007 0-.013-.003-.02-.004-.75.044-1.489.066-2.18.066-.691 0-1.43-.022-2.18-.065-.008 0-.013.003-.02.003-.013 0-.024-.006-.036-.007a37.234 37.234 0 0 1-1.778-.148c-.007 0-.013.004-.02.004-.023 0-.044-.01-.066-.014-3.051-.339-5.797-1.066-5.8-2.236v-2.462h.005a.75.75 0 0 1 .05-.219c-.717-.33-1.154-.724-1.155-1.19v-2.462h.004c.035-.592.755-1.056 2.196-1.411v-2.46h.005a.756.756 0 0 1 .033-.178c-1.337-.39-2.236-.913-2.238-1.581v-2.462h.006c.132-2.051 8.888-2.112 9.894-2.112 1.006 0 9.762.06 9.894 2.112h.006v2.461a.771.771 0 0 1-.079.33c1.492.358 2.238.829 2.275 1.43zm-2.933 6.331v-1.456a5.583 5.583 0 0 1-1.1.484v1.677c.422-.158.742-.322.935-.484l.125-.106c.026-.04.04-.079.04-.115zm-7.57 1.728l.236-.01v-1.757c-.367.016-.736.027-1.105.033l-.059.002-.302.004v1.757l.398-.004.161-.003c.227-.005.45-.012.67-.022zm-2.177.029l.213.002v-1.759c-.1 0-.201-.002-.302-.004l-.058-.001c-.37-.006-.739-.017-1.106-.034v1.757c.197.009.395.017.595.024l.062.002a38.587 38.587 0 0 0 .596.013zm-6.583-.768c.282.074.593.146.93.215v-1.718c-.39-.073-.758-.154-1.1-.243v1.7l.035.01.135.036zm7.535 2.876c-.369-.006-.738-.017-1.106-.033v1.757c.471.022.96.036 1.467.04v-1.759c-.1 0-.202-.002-.302-.004h-.059zm1.397.001l-.302.004v1.76c.506-.006.995-.02 1.466-.041v-1.757c-.367.016-.737.026-1.106.033l-.058.001zm1.898-.075v1.755c.38-.025.747-.057 1.1-.092v-1.748c-.361.034-.728.063-1.1.085zm1.833 1.58c.388-.05.755-.103 1.1-.162v-1.727c-.355.055-.722.104-1.1.149zm1.833-.297c.406-.083.774-.17 1.1-.26v-1.7c-.342.088-.71.169-1.1.242zm-13.567-1.96v1.7c.327.09.695.177 1.1.26v-1.718a17.18 17.18 0 0 1-1.1-.243zm1.834 2.095c.345.06.712.113 1.1.162v-1.74a28.725 28.725 0 0 1-1.1-.149zm1.833.245c.352.035.72.067 1.1.092v-1.754c-.372-.023-.739-.052-1.1-.086zm0-3.779v-1.753c-.371-.024-.739-.053-1.1-.085v1.746l.079.008.112.012c.297.027.601.051.91.072zm-2.933-2.064v1.729a27.1 27.1 0 0 0 1.1.16v-1.74a27.34 27.34 0 0 1-1.1-.149zm8.47 2.035c.238-.019.47-.04.697-.063v-1.747c-.361.033-.729.062-1.1.085v1.755c.082-.006.163-.011.244-.018l.16-.012zm2.53-.306v-1.729c-.355.055-.722.106-1.1.15v1.74c.387-.049.754-.103 1.1-.161zm.733-.137a16.5 16.5 0 0 0 1.1-.26v-1.7c-.342.089-.71.169-1.1.243zm-4.933-3.322c.174.003.354.004.533.006v-1.757l-.303-.004-.057-.001c-.37-.007-.739-.017-1.106-.034v1.756l.042.003c.265.012.534.022.81.029.027 0 .054 0 .081.002zm-8.236-4.927c.182.045.372.089.567.13l.135.027v-1.718c-.389-.073-.757-.154-1.1-.242v1.7c.127.034.26.07.398.103zm6.208-1.052c-.369-.006-.738-.016-1.106-.033v1.755c.483.024.974.036 1.467.04v-1.757c-.1 0-.201-.002-.302-.004h-.059zm1.397.001c-.1.002-.202.004-.302.004v1.758c.132-.002.265-.002.396-.005l.119-.002c.254-.005.505-.012.75-.023h.016c.063-.004.123-.008.185-.01v-1.756c-.367.016-.736.026-1.106.033l-.058.001zm8.498.004v-1.457a5.539 5.539 0 0 1-1.1.485v1.674c.381-.141.678-.287.872-.432l.133-.1.01.002c.055-.061.085-.119.085-.172zm-3.667 1.337v-1.726c-.355.056-.722.106-1.1.15v1.737c.386-.048.752-.102 1.1-.161zm1.833-.397v-1.696c-.342.088-.71.169-1.1.242v1.715c.402-.082.772-.17 1.1-.261zm-4.766-1.018v1.753a36.05 36.05 0 0 0 1.1-.093v-1.746c-.361.033-.729.062-1.1.086zm-5.134 1.752v-1.752c-.371-.024-.739-.053-1.1-.086v1.746c.359.036.727.066 1.1.092zm-2.933-2.062v1.728l.12.02c.203.033.41.064.622.094l.138.019.22.026v-1.738a28.705 28.705 0 0 1-1.1-.149zm5.133 6.286v-1.754a37.897 37.897 0 0 1-1.1-.085v1.746l.03.004.143.014c.224.022.453.04.688.059l.148.01.091.006zm-2.488-.264c.21.03.43.06.655.09v-1.741a28.745 28.745 0 0 1-1.1-.148v1.725c.138.023.275.047.42.07.008 0 .017.002.025.004zm-2.279-2.168v1.693c.328.092.696.18 1.1.264v-1.715c-.389-.073-.757-.154-1.1-.242zm-1.833-.7v1.457c0 .011.004.023.007.034l.024.038c.121.195.493.413 1.07.627v-1.672a5.538 5.538 0 0 1-1.1-.484zm9.836 1.453l-.302.004v1.756c.495-.005.984-.017 1.466-.04v-1.755c-.367.016-.737.027-1.105.034l-.059.001zm4.831 1.343v-1.727a27.37 27.37 0 0 1-1.1.147v1.74c.094-.012.19-.023.284-.036a22.057 22.057 0 0 0 .782-.118l.034-.006zm-2.478.302c.219-.017.432-.038.645-.06v-1.745c-.361.034-.729.061-1.1.085v1.752c.138-.01.28-.017.416-.028l.039-.004zm4.312-.698v-1.7c-.343.089-.711.17-1.1.243v1.716l.087-.017c.095-.019.188-.04.28-.06a14.037 14.037 0 0 0 .733-.182zm-.287-4.243c-.023.015-.05.028-.073.041-.04.026-.085.05-.129.075-.038.02-.074.043-.115.063-.09.048-.189.092-.29.136l-.083.035c-.096.04-.195.078-.3.116l-.062.024a12.159 12.159 0 0 1-.522.167l-.233.065c-1.718.472-4.187.775-6.851.815a33.325 33.325 0 0 1-1.417-.005c-.46-.01-.916-.029-1.365-.054l-.007.001-.014-.002a34.641 34.641 0 0 1-1.818-.15l-.002.001-.007-.001a26.017 26.017 0 0 1-2.836-.463c-.026-.007-.054-.012-.078-.017-.005.008-.005.014-.007.02.042.238.605.553 1.604.85 1.297.384 3.328.736 5.9.845a23.466 23.466 0 0 0 .729.024 39.765 39.765 0 0 0 1.858.001l.332-.01c.134-.003.265-.009.397-.014 2.572-.11 4.602-.462 5.9-.846 1.006-.3 1.57-.617 1.604-.855-.041-.146-.474-.52-2.115-.861zm-18.408-3.354c.044.238.606.553 1.603.848 1.298.385 3.328.737 5.9.846l.397.015.332.01c.303.006.611.011.929.011a44.052 44.052 0 0 0 1.26-.021c.135-.004.266-.01.398-.015 2.572-.109 4.602-.461 5.9-.846.996-.295 1.559-.61 1.603-.848-.057-.524-3.115-1.437-9.161-1.437-6.046 0-9.104.913-9.161 1.437zm1.094 3.144v-1.685a5.536 5.536 0 0 1-1.1-.485v1.458c0 .198.387.455 1.1.712zm-1.096 4.941c.033.24.597.556 1.605.856 1.298.385 3.328.737 5.9.846l.397.015c.11.003.22.007.332.009a39.731 39.731 0 0 0 1.63.005l.272-.006.248-.007c2.78-.086 4.967-.456 6.336-.862a6.776 6.776 0 0 0 1.085-.406c-1.23.255-2.683.432-4.233.52l-.009.001h-.005a41.812 41.812 0 0 1-2.195.063 38.942 38.942 0 0 1-2.199-.063h-.004c-1.545-.087-2.964-.263-4.153-.506-.097-.019-.193-.04-.288-.06l-.092-.019c-1.294-.285-2.333-.667-2.835-1.154l-.02-.015c-1.36.32-1.731.65-1.772.783zm.883 3.071l.004-.004.21.077v-1.677a5.62 5.62 0 0 1-1.1-.484v1.457c0 .177.31.402.886.631zm1.313 3.95v-1.684a5.536 5.536 0 0 1-1.1-.484v1.457c.001.198.387.455 1.1.712zm17.234-.712v-1.456a5.541 5.541 0 0 1-1.1.484v1.685c.713-.257 1.1-.515 1.1-.713zm-.952-2.991c-.033.022-.073.043-.108.065a7.632 7.632 0 0 1-.118.071l-.101.056c-.643.342-1.58.618-2.663.831l-.077.016-.35.064a28.03 28.03 0 0 1-1.842.264c-.008 0-.014.005-.022.005l-.007-.002c-.584.065-1.193.116-1.822.152l-.005.001h-.003a36.857 36.857 0 0 1-2.66.059 37.551 37.551 0 0 1-1.736-.06h-.001-.002c-1.84-.104-3.545-.336-4.88-.664l-.18-.045-.118-.031a10.029 10.029 0 0 1-.304-.085l-.035-.01c-.116-.035-.23-.07-.339-.107.07.235.63.54 1.6.828 1.298.384 3.328.737 5.9.846l.4.015.328.01c.304.006.612.011.93.011a44.051 44.051 0 0 0 1.26-.02l.398-.016c2.572-.109 4.602-.46 5.9-.845 1-.297 1.564-.613 1.604-.852-.024-.087-.224-.31-.947-.557zm2.052-4.75v-1.456a5.581 5.581 0 0 1-1.1.485v1.684c.713-.256 1.1-.514 1.1-.712z"/></defs><g><g transform="translate(-1624 -11517)"><use fill="#f5a918" xlink:href="#gczxa"/></g></g></svg>