<svg xmlns="http://www.w3.org/2000/svg" xmlns:xlink="http://www.w3.org/1999/xlink" width="31" height="31" viewBox="0 0 31 31"><defs><path id="iq9ia" d="M1225.806 58.852l-2.443 2.443a7.472 7.472 0 0 1-2.122 1.482 7.945 7.945 0 0 1 .723 3.306v3.382c0 .276-.223.5-.499.5h-3.382a7.93 7.93 0 0 1-3.306-.724 7.433 7.433 0 0 1-1.482 2.122l-2.442 2.443a.497.497 0 0 1-.705 0l-2.442-2.443a7.433 7.433 0 0 1-1.482-2.122 7.923 7.923 0 0 1-3.306.723h-3.383a.499.499 0 0 1-.499-.499v-3.382c.001-1.141.248-2.268.723-3.305a7.5 7.5 0 0 1-2.122-1.482l-2.443-2.443a.498.498 0 0 1 0-.704l2.443-2.442a7.46 7.46 0 0 1 2.122-1.483 7.945 7.945 0 0 1-.723-3.306v-3.383c0-.275.224-.498.499-.498h3.383a7.95 7.95 0 0 1 3.305.722 7.472 7.472 0 0 1 1.482-2.122l2.442-2.443a.5.5 0 0 1 .705 0l2.442 2.443a7.475 7.475 0 0 1 1.482 2.122 7.954 7.954 0 0 1 3.307-.722h3.382c.276 0 .499.223.499.498v3.383a7.946 7.946 0 0 1-.723 3.306 7.44 7.44 0 0 1 2.122 1.482l2.442 2.442a.498.498 0 0 1 0 .704zm-10.322-7.928v.2c0 1.047-.22 2.084-.648 3.04a7.438 7.438 0 0 1 3.04-.648h.2a7.5 7.5 0 0 1 2.237.342c.43-.92.654-1.924.654-2.94v-2.884h-2.884c-1.016 0-2.02.224-2.94.655.226.723.341 1.477.341 2.235zm-2.19 5.487l-1.59 1.591 2.176-.002a6.934 6.934 0 0 0 4.935-2.044l.105-.105a7.05 7.05 0 0 0 .898-1.097 6.532 6.532 0 0 0-1.742-.241h-.2a6.443 6.443 0 0 0-4.582 1.898zm.95-7.23a7.048 7.048 0 0 0-1.096.897l-.106.106a6.933 6.933 0 0 0-2.043 4.933v2.181l1.59-1.592a6.44 6.44 0 0 0 1.898-4.583v-.199a6.49 6.49 0 0 0-.243-1.743zm-7.14-.948a7.994 7.994 0 0 1 1.453 1.14l.105.105a7.956 7.956 0 0 1 1.838 2.879 7.951 7.951 0 0 1 1.838-2.879l.106-.105a7.964 7.964 0 0 1 1.453-1.14 6.457 6.457 0 0 0-1.307-1.891l-2.09-2.089-2.09 2.089a6.47 6.47 0 0 0-1.307 1.891zm-.591 2.691v.2a6.441 6.441 0 0 0 1.896 4.585l1.59 1.591v-2.18a6.934 6.934 0 0 0-2.043-4.934l-.106-.106a7.096 7.096 0 0 0-1.096-.897 6.49 6.49 0 0 0-.241 1.741zm-3.39 3.589h-.199a6.551 6.551 0 0 0-1.744.243c.261.395.562.762.897 1.097l.106.105a6.937 6.937 0 0 0 4.934 2.044h2.18l-1.592-1.591a6.441 6.441 0 0 0-4.582-1.898zm-3.09-6.48v2.885c0 1.015.224 2.02.655 2.94a7.495 7.495 0 0 1 2.236-.342h.2c1.047 0 2.083.22 3.04.649a7.455 7.455 0 0 1-.648-3.042v-.199c0-.758.115-1.512.342-2.235a6.954 6.954 0 0 0-2.94-.655zm.2 13.863a8.027 8.027 0 0 1 1.14-1.452l.106-.106a7.945 7.945 0 0 1 2.878-1.838 7.956 7.956 0 0 1-2.879-1.838l-.106-.106a7.993 7.993 0 0 1-1.14-1.452 6.472 6.472 0 0 0-1.89 1.307l-2.09 2.09 2.09 2.088a6.434 6.434 0 0 0 1.89 1.307zm5.283 4.18v-.2c0-1.047.22-2.083.648-3.04a7.448 7.448 0 0 1-3.04.648h-.2a7.499 7.499 0 0 1-2.236-.342 6.947 6.947 0 0 0-.655 2.94v2.885h2.884a6.96 6.96 0 0 0 2.94-.655 7.49 7.49 0 0 1-.341-2.236zm2.19-5.487l1.59-1.59-2.176.003a6.93 6.93 0 0 0-4.935 2.042l-.105.106a7.012 7.012 0 0 0-.897 1.096c.566.16 1.152.24 1.741.241h.2a6.434 6.434 0 0 0 4.582-1.898zm-.95 7.231a7.056 7.056 0 0 0 1.096-.897l.106-.105a6.936 6.936 0 0 0 2.044-4.935v-2.18l-1.591 1.593a6.434 6.434 0 0 0-1.898 4.58v.2c.001.59.083 1.177.243 1.744zm7.14.95a7.974 7.974 0 0 1-1.453-1.143l-.105-.106a7.93 7.93 0 0 1-1.838-2.878 7.933 7.933 0 0 1-1.838 2.879l-.106.106a7.992 7.992 0 0 1-1.453 1.142c.32.702.763 1.342 1.308 1.889l2.089 2.09 2.09-2.09a6.469 6.469 0 0 0 1.307-1.89zm.591-2.894a6.435 6.435 0 0 0-1.895-4.581L1211 59.704v2.176a6.935 6.935 0 0 0 2.043 4.935l.106.105c.334.336.701.637 1.096.898a6.51 6.51 0 0 0 .241-1.742zm3.39-3.389h.2a6.494 6.494 0 0 0 1.743-.243 7.053 7.053 0 0 0-.897-1.096l-.106-.106a6.934 6.934 0 0 0-4.934-2.043h-2.18l1.592 1.59a6.436 6.436 0 0 0 4.582 1.898zm3.09 3.596c0-1.017-.224-2.02-.655-2.94a7.495 7.495 0 0 1-2.236.341h-.2a7.448 7.448 0 0 1-3.04-.647c.428.956.649 1.992.648 3.04v.2c0 .758-.115 1.511-.342 2.236.92.43 1.924.653 2.94.654h2.885zm3.781-7.583l-2.09-2.09a6.476 6.476 0 0 0-1.888-1.306 8.03 8.03 0 0 1-1.143 1.453l-.105.105a7.937 7.937 0 0 1-2.878 1.838 7.947 7.947 0 0 1 2.878 1.838l.106.106c.435.44.819.926 1.142 1.452a6.436 6.436 0 0 0 1.889-1.307z"/></defs><g><g transform="translate(-1195 -43)"><use fill="#92b069" xlink:href="#iq9ia"/></g></g></svg>