<svg xmlns="http://www.w3.org/2000/svg" xmlns:xlink="http://www.w3.org/1999/xlink" width="30" height="30" viewBox="0 0 30 30"><defs><path id="ni1oa" d="M1703 44.875v11.25h-1.25v-11.25a.625.625 0 0 0-.625-.625h-26.25a.625.625 0 0 0-.625.625v17.5c0 .345.28.625.625.625h6.875v1.25h-6.875a1.875 1.875 0 0 1-1.875-1.875v-17.5c0-1.035.84-1.875 1.875-1.875h26.25c1.035 0 1.875.84 1.875 1.875zm-21.875 1.875v2.5c0 .345-.28.625-.625.625h-3.75a.625.625 0 0 1-.625-.625v-2.5c0-.346.28-.625.625-.625h3.75c.345 0 .625.28.625.625zm-1.25 1.875v-1.25h-2.5v1.25zm13.75 1.875a2.5 2.5 0 1 1 1.875-4.153 2.5 2.5 0 1 1 0 3.307 2.494 2.494 0 0 1-1.875.846zm1.25-2.5a1.25 1.25 0 1 0-2.5 0 1.25 1.25 0 0 0 2.5 0zm3.75 0a1.25 1.25 0 1 0-2.5 0 1.25 1.25 0 0 0 2.5 0zm-21.25 6.25v1.25H1683v1.25h-6.25a.625.625 0 0 1-.625-.625v-2.5c0-.345.28-.625.625-.625h9.375v1.25zM1703 63c-.007 5.52-4.48 9.994-10 10-5.523 0-10-4.477-10-10s4.477-10 10-10 10 4.477 10 10zm-1.25 0a8.76 8.76 0 0 0-8.75-8.75 8.75 8.75 0 1 0 8.75 8.75zm-7.5-1.25v-.625h-2.5v1.25h2.5c.69 0 1.25.56 1.25 1.25v1.25c0 .69-.56 1.25-1.25 1.25h-.625v1.25h-1.25v-1.25h-.625c-.69 0-1.25-.56-1.25-1.25v-.625h1.25v.625h2.5v-1.25h-2.5c-.69 0-1.25-.56-1.25-1.25v-1.25c0-.69.56-1.25 1.25-1.25h.625v-1.25h1.25v1.25h.625c.69 0 1.25.56 1.25 1.25v.625z"/></defs><g><g transform="translate(-1673 -43)"><use fill="#92b069" xlink:href="#ni1oa"/></g></g></svg>