<svg xmlns="http://www.w3.org/2000/svg" xmlns:xlink="http://www.w3.org/1999/xlink" width="58" height="48" viewBox="0 0 58 48"><defs><path id="t26da" d="M1294.5 4267c4.699 0 8.506 3.745 8.506 8.366 0 4.62-3.807 8.365-8.506 8.365-1.287 0-2.501-.29-3.594-.792-.344-3.25-2.224-6.046-4.906-7.701.071-4.56 3.846-8.237 8.5-8.238zm-22.58 17.001c0-4.62 3.81-8.365 8.507-8.365 4.698 0 8.507 3.745 8.507 8.365s-3.809 8.365-8.507 8.365c-4.697 0-8.507-3.744-8.507-8.365zm23.006 19.647v8.681h-.061l-.568.283c-.287.144-4.926 2.387-12.93 2.387-4.1 0-9.079-.586-14.81-2.347l-.608-.187-.022-.136v-8.681c0-5.906 4.886-10.712 10.89-10.712h7.218c6.006 0 10.891 4.806 10.89 10.712zm14.074-8.637v8.683h-.06l-.57.283c-.268.133-4.344 2.104-11.415 2.359v-2.675c0-5.75-3.904-10.618-9.243-12.18 1.934-1.824 3.157-4.362 3.235-7.18h7.162c6.005 0 10.89 4.804 10.89 10.71zm-52.005-19.644c0-4.62 3.808-8.365 8.507-8.365 4.696 0 8.504 3.745 8.504 8.365 0 .158-.014.313-.023.47-2.083 1.591-3.54 3.928-3.958 6.602a8.553 8.553 0 0 1-4.523 1.292c-4.7 0-8.507-3.745-8.507-8.364zm6.9 28.294v2.621c-3.563-.204-7.667-.855-12.264-2.266l-.609-.19-.022-.132v-8.683c0-5.906 4.886-10.71 10.891-10.71h7.218c.27 0 .533.02.799.04.089 2.8 1.307 5.325 3.233 7.14-5.34 1.562-9.244 6.43-9.245 12.18z"/></defs><g><g transform="translate(-1251 -4267)"><use fill="#fd7532" xlink:href="#t26da"/></g></g></svg>