<svg xmlns="http://www.w3.org/2000/svg" xmlns:xlink="http://www.w3.org/1999/xlink" width="21" height="24" viewBox="0 0 21 24"><defs><path id="ctmga" d="M1659.604 11354.154c.427.56.612 1.184.539 1.804-.073.615-.394 1.178-.932 1.634-.234.199-.471.385-.703.562-.339.264-.662.515-.95.793-.005.012-.016.017-.021.025-.83.731-1.814 1.023-2.926.882-.096-.011-.202-.032-.302-.048-1.64-.318-3.042-1.15-4.085-1.833-2.727-1.822-5.021-4.2-6.821-7.076-1.482-2.386-2.408-4.55-2.93-6.828-.213-.93-.466-2.337-.178-3.779a3.686 3.686 0 0 1 1.32-2.183l1.84-1.503.011-.01c.539-.415 1.137-.598 1.725-.524.587.074 1.116.4 1.526.94.278.337.543.694.796 1.043.126.177.26.357.392.529l1.153 1.53c.887 1.17.726 2.527-.41 3.445-.15.122-.302.252-.454.372-.401.331-.813.673-1.252.995.214.71.54 1.428 1.048 2.288 1.055 1.738 2.206 3.126 3.52 4.241.13.111.283.216.446.33.112.076.23.16.347.245l1.708-1.376c.547-.446 1.146-.633 1.738-.561.598.076 1.13.42 1.537.98zm-1.036.824l-2.328-3.086c-.005-.003-.005-.003-.009-.008-.13-.19-.352-.415-.65-.456-.304-.033-.588.136-.772.285l-1.85 1.495c-.091.075-.372.306-.772.252a1.008 1.008 0 0 1-.462-.187c-.018-.008-.036-.028-.054-.04a5.962 5.962 0 0 0-.445-.324 6.815 6.815 0 0 1-.553-.409c-1.426-1.208-2.67-2.707-3.799-4.575l-.004-.005c-.618-1.054-1.004-1.92-1.244-2.823l-.01-.047c-.052-.293-.08-.724.385-1.102.006-.01.017-.013.027-.019.466-.335.898-.687 1.354-1.061.156-.122.308-.25.465-.381.573-.46.63-.95.183-1.543l-1.154-1.524c-.134-.185-.27-.365-.4-.544a22.044 22.044 0 0 0-.76-1c-.005-.01-.01-.013-.013-.02-.136-.178-.359-.401-.662-.44-.246-.028-.511.062-.774.264l-1.844 1.488c-.45.364-.723.821-.84 1.399-.181.903-.132 1.887.169 3.19.486 2.126 1.36 4.158 2.758 6.417 1.698 2.707 3.861 4.953 6.426 6.664.938.621 2.199 1.366 3.618 1.643.071.014.149.023.22.034.752.093 1.355-.085 1.906-.565.341-.325.698-.607 1.048-.877.232-.182.447-.35.66-.533-.006.004-.006 0 0 0 .553-.467.615-.989.18-1.562z"/></defs><g><g transform="translate(-1640 -11336)"><use fill="#92b069" xlink:href="#ctmga"/></g></g></svg>