<svg xmlns="http://www.w3.org/2000/svg" xmlns:xlink="http://www.w3.org/1999/xlink" width="33" height="31" viewBox="0 0 33 31"><defs><path id="a20oa" d="M1447.65 56.585c0-.29.23-.526.517-.526h6.716c.286 0 .517.236.517.526 0 .29-.231.526-.517.526h-6.716a.521.521 0 0 1-.517-.526zm14.467 3.16c0 .29-.231.526-.517.526h-13.433a.522.522 0 0 1-.517-.526c0-.29.23-.527.517-.527h13.433c.286 0 .517.236.517.527zm0 3.16c0 .29-.231.525-.517.525h-13.433a.521.521 0 0 1-.517-.525c0-.292.23-.527.517-.527h13.433c.286 0 .517.235.517.527zM1476 46.16v13.134c0 1.72-1.374 3.122-3.064 3.122h-.553v5.266a.525.525 0 0 1-.516.526.515.515 0 0 1-.383-.172l-3.717-3.048v.06c0 1.722-1.375 3.123-3.064 3.123l-9.59.035-5.014 5.622a.513.513 0 0 1-.569.136.524.524 0 0 1-.33-.49v-5.267h-3.136c-1.69 0-3.064-1.4-3.064-3.122V53.953c0-1.722 1.374-3.123 3.064-3.123l4.17-.009v-4.698c0-1.722 1.374-3.123 3.063-3.123l19.64.037c1.69 0 3.063 1.402 3.063 3.123zm-9.267 7.755c0-1.141-.91-2.07-2.03-2.07l-13.952.027h-.001l-4.685.011c-1.12 0-2.032.928-2.032 2.07v11.132c0 1.141.911 2.07 2.03 2.07h3.654c.285 0 .516.235.516.525v4.431l4.268-4.786a.513.513 0 0 1 .38-.17l9.82-.038c1.121 0 2.032-.928 2.032-2.068zm8.234 5.377V46.16c0-1.141-.91-2.07-2.03-2.07h-.001l-19.64-.037c-1.118 0-2.03.928-2.03 2.07v4.696l13.436-.025c1.69 0 3.065 1.4 3.065 3.121v9.508l3.583 2.896v-4.431c0-.29.231-.527.517-.527h1.07c1.119 0 2.03-.928 2.03-2.069z"/></defs><g><g transform="translate(-1443 -43)"><use fill="#92b069" xlink:href="#a20oa"/></g></g></svg>