<svg xmlns="http://www.w3.org/2000/svg" xmlns:xlink="http://www.w3.org/1999/xlink" width="19" height="23" viewBox="0 0 19 23"><defs><path id="3zdoa" d="M1646.903 11270.937c-1.713-2.07-1.428-5.613-1.397-5.95.111-2.557 1.25-3.771 2.184-4.34.93-.566 1.9-.653 2.393-.653h.075c.899.024 1.704.25 2.393.675.925.567 2.046 1.78 2.157 4.318.031.337.316 3.88-1.396 5.95-.779.938-1.833 1.427-3.136 1.455h-.142c-1.303-.028-2.358-.517-3.131-1.455zm.894-.856c.556.677 1.307 1.015 2.286 1.022h.044c.983-.007 1.73-.345 2.29-1.022 1.415-1.702 1.104-4.942 1.1-4.974-.005-.01-.005-.026-.005-.04-.138-3.23-2.18-3.751-3.38-3.78h-.054c-.97 0-3.233.37-3.38 3.78 0 .01-.004.024-.004.04-.005.025-.307 3.28 1.103 4.974zm11.235 10.339a.631.631 0 0 1-.232.3c-.133.09-3.331 2.277-8.682 2.277-5.35 0-8.548-2.182-8.682-2.277a.605.605 0 0 1-.231-.3c-.236-.638-.231-1.91-.227-2.156v-.014c.005-.039.005-.076.005-.12.026-.941.084-3.143 2.015-3.855.013-.003.026-.01.044-.014 2.015-.549 3.674-1.785 3.692-1.799a.57.57 0 0 1 .836.159c.191.289.125.689-.147.89-.076.055-1.846 1.379-4.06 1.988-1.037.397-1.153 1.584-1.184 2.668 0 .044-.004.083-.004.119-.01.427.022 1.091.093 1.47.725.441 3.567 1.958 7.846 1.958 4.296 0 7.12-1.512 7.841-1.95.071-.38.098-1.045.094-1.471-.005-.04-.005-.08-.005-.119-.03-1.087-.147-2.272-1.183-2.671-2.215-.61-3.985-1.93-4.06-1.988a.667.667 0 0 1-.147-.892.576.576 0 0 1 .836-.157c.017.015 1.685 1.25 3.691 1.8.014.006.031.009.045.014 1.93.707 1.988 2.909 2.015 3.854 0 .042.004.08.004.12v.015c.005.246.01 1.517-.213 2.15z"/></defs><g><g transform="translate(-1641 -11260)"><use fill="#92b069" xlink:href="#3zdoa"/></g></g></svg>